# Wavefront OBJ file automatically generated by Tiled2Unity

# Vertices (Count = 143)
v -0.32 -0.48 0
v -0.48 -0.48 0
v -0.48 -0.32 0
v -0.32 -0.32 0
v -0.64 -0.48 0
v -0.64 -0.32 0
v -0.8 -0.48 0
v -0.8 -0.32 0
v -0.96 -0.48 0
v -0.96 -0.32 0
v -1.12 -0.48 0
v -1.12 -0.32 0
v -1.28 -0.48 0
v -1.28 -0.32 0
v -0.32 -0.64 0
v -0.48 -0.64 0
v -0.64 -0.64 0
v -0.8 -0.64 0
v -0.96 -0.64 0
v -1.12 -0.64 0
v -1.28 -0.64 0
v -0.32 -0.8 0
v -0.48 -0.8 0
v -0.64 -0.8 0
v -0.8 -0.8 0
v -0.96 -0.8 0
v -1.12 -0.8 0
v -1.28 -0.8 0
v -0.32 -0.96 0
v -0.48 -0.96 0
v -0.64 -0.96 0
v -0.8 -0.96 0
v -0.96 -0.96 0
v -1.12 -0.96 0
v -1.28 -0.96 0
v -0.32 -1.12 0
v -0.48 -1.12 0
v -0.64 -1.12 0
v -0.8 -1.12 0
v -0.96 -1.12 0
v -1.12 -1.12 0
v -1.28 -1.12 0
v -0.32 -1.28 0
v -0.48 -1.28 0
v -0.64 -1.28 0
v -0.8 -1.28 0
v -0.96 -1.28 0
v -1.12 -1.28 0
v -1.28 -1.28 0
v -0.32 -1.44 0
v -0.48 -1.44 0
v -0.64 -1.44 0
v -0.8 -1.44 0
v -0.96 -1.44 0
v -1.12 -1.44 0
v -1.28 -1.44 0
v -0.32 -1.6 0
v -0.48 -1.6 0
v -0.64 -1.6 0
v -0.8 -1.6 0
v -0.96 -1.6 0
v -1.12 -1.6 0
v -1.28 -1.6 0
v -0.32 -1.76 0
v -0.48 -1.76 0
v -0.64 -1.76 0
v -0.8 -1.76 0
v -0.96 -1.76 0
v -1.12 -1.76 0
v -1.28 -1.76 0
v 0 -0.16 0
v -0.16 -0.16 0
v -0.16 0 0
v 0 0 0
v -0.32 -0.16 0
v -0.32 0 0
v -0.48 -0.16 0
v -0.48 0 0
v -0.64 -0.16 0
v -0.64 0 0
v -0.8 -0.16 0
v -0.8 0 0
v -0.96 -0.16 0
v -0.96 0 0
v -1.12 -0.16 0
v -1.12 0 0
v -1.28 -0.16 0
v -1.28 0 0
v -1.44 -0.16 0
v -1.44 0 0
v -1.6 -0.16 0
v -1.6 0 0
v 0 -0.32 0
v -0.16 -0.32 0
v -1.44 -0.32 0
v -1.6 -0.32 0
v 0 -0.48 0
v -0.16 -0.48 0
v -1.44 -0.48 0
v -1.6 -0.48 0
v 0 -0.64 0
v -0.16 -0.64 0
v -1.44 -0.64 0
v -1.6 -0.64 0
v 0 -0.8 0
v -0.16 -0.8 0
v -1.44 -0.8 0
v -1.6 -0.8 0
v 0 -0.96 0
v -0.16 -0.96 0
v -1.44 -0.96 0
v -1.6 -0.96 0
v 0 -1.12 0
v -0.16 -1.12 0
v -1.44 -1.12 0
v -1.6 -1.12 0
v 0 -1.28 0
v -0.16 -1.28 0
v -1.44 -1.28 0
v -1.6 -1.28 0
v 0 -1.44 0
v -0.16 -1.44 0
v -1.44 -1.44 0
v -1.6 -1.44 0
v 0 -1.6 0
v -0.16 -1.6 0
v -1.44 -1.6 0
v -1.6 -1.6 0
v 0 -1.76 0
v -0.16 -1.76 0
v -1.44 -1.76 0
v -1.6 -1.76 0
v 0 -1.92 0
v -0.16 -1.92 0
v -0.32 -1.92 0
v -0.48 -1.92 0
v -0.64 -1.92 0
v -0.8 -1.92 0
v -1.28 -1.92 0
v -1.44 -1.92 0
v -1.6 -1.92 0
v -0.96 -1.92 0
v -1.12 -1.92 0

# Texture cooridinates (Count = 414)
vt 0.1334554 0.8001221
vt 0.1998779 0.8001221
vt 0.1998779 0.8665446
vt 0.1334554 0.8665446
vt 0.2001221 0.8001221
vt 0.2665446 0.8001221
vt 0.2665446 0.8665446
vt 0.2001221 0.8665446
vt 0.1334554 0.7334554
vt 0.1998779 0.7334554
vt 0.1998779 0.7998779
vt 0.1334554 0.7998779
vt 0.2001221 0.7334554
vt 0.2665446 0.7334554
vt 0.2665446 0.7998779
vt 0.2001221 0.7998779
vt 0.0001220703 0.9334554
vt 0.0665446 0.9334554
vt 0.0665446 0.9998779
vt 0.0001220703 0.9998779
vt 0.06678874 0.9334554
vt 0.1332113 0.9334554
vt 0.1332113 0.9998779
vt 0.06678874 0.9998779
vt 0.1334554 0.9334554
vt 0.1998779 0.9334554
vt 0.1998779 0.9998779
vt 0.1334554 0.9998779
vt 0.2001221 0.9334554
vt 0.2665446 0.9334554
vt 0.2665446 0.9998779
vt 0.2001221 0.9998779
vt 0.2667888 0.9334554
vt 0.3332113 0.9334554
vt 0.3332113 0.9998779
vt 0.2667888 0.9998779
vt 0.3334554 0.9334554
vt 0.3998779 0.9334554
vt 0.3998779 0.9998779
vt 0.3334554 0.9998779
vt 0.0001220703 0.8667887
vt 0.0665446 0.8667887
vt 0.0665446 0.9332113
vt 0.0001220703 0.9332113
vt 0.06678874 0.8667887
vt 0.1332113 0.8667887
vt 0.1332113 0.9332113
vt 0.06678874 0.9332113
vt 0.1334554 0.8667887
vt 0.1998779 0.8667887
vt 0.1998779 0.9332113
vt 0.1334554 0.9332113
vt 0.2001221 0.8667887
vt 0.2665446 0.8667887
vt 0.2665446 0.9332113
vt 0.2001221 0.9332113
vt 0.2667888 0.8667887
vt 0.3332113 0.8667887
vt 0.3332113 0.9332113
vt 0.2667888 0.9332113
vt 0.3334554 0.8667887
vt 0.3998779 0.8667887
vt 0.3998779 0.9332113
vt 0.3334554 0.9332113
vt 0.0001220703 0.8001221
vt 0.0665446 0.8001221
vt 0.0665446 0.8665446
vt 0.0001220703 0.8665446
vt 0.06678874 0.8001221
vt 0.1332113 0.8001221
vt 0.1332113 0.8665446
vt 0.06678874 0.8665446
vt 0.2667888 0.8001221
vt 0.3332113 0.8001221
vt 0.3332113 0.8665446
vt 0.2667888 0.8665446
vt 0.3334554 0.8001221
vt 0.3998779 0.8001221
vt 0.3998779 0.8665446
vt 0.3334554 0.8665446
vt 0.2667888 0.7334554
vt 0.3332113 0.7334554
vt 0.3332113 0.7998779
vt 0.2667888 0.7998779
vt 0.3334554 0.7334554
vt 0.3998779 0.7334554
vt 0.3998779 0.7998779
vt 0.3334554 0.7998779
vt 0.0001220703 0.7334554
vt 0.0665446 0.7334554
vt 0.0665446 0.7998779
vt 0.0001220703 0.7998779
vt 0.06678874 0.7334554
vt 0.1332113 0.7334554
vt 0.1332113 0.7998779
vt 0.06678874 0.7998779
vt 0.0001220703 0.6667887
vt 0.0665446 0.6667887
vt 0.0665446 0.7332113
vt 0.0001220703 0.7332113
vt 0.06678874 0.6667887
vt 0.1332113 0.6667887
vt 0.1332113 0.7332113
vt 0.06678874 0.7332113
vt 0.1334554 0.6667887
vt 0.1998779 0.6667887
vt 0.1998779 0.7332113
vt 0.1334554 0.7332113
vt 0.2001221 0.6667887
vt 0.2665446 0.6667887
vt 0.2665446 0.7332113
vt 0.2001221 0.7332113
vt 0.2667888 0.6667887
vt 0.3332113 0.6667887
vt 0.3332113 0.7332113
vt 0.2667888 0.7332113
vt 0.3334554 0.6667887
vt 0.3998779 0.6667887
vt 0.3998779 0.7332113
vt 0.3334554 0.7332113
vt 0.0001220703 0.6001221
vt 0.0665446 0.6001221
vt 0.0665446 0.6665446
vt 0.0001220703 0.6665446
vt 0.06678874 0.6001221
vt 0.1332113 0.6001221
vt 0.1332113 0.6665446
vt 0.06678874 0.6665446
vt 0.1334554 0.6001221
vt 0.1998779 0.6001221
vt 0.1998779 0.6665446
vt 0.1334554 0.6665446
vt 0.2001221 0.6001221
vt 0.2665446 0.6001221
vt 0.2665446 0.6665446
vt 0.2001221 0.6665446
vt 0.2667888 0.6001221
vt 0.3332113 0.6001221
vt 0.3332113 0.6665446
vt 0.2667888 0.6665446
vt 0.3334554 0.6001221
vt 0.3998779 0.6001221
vt 0.3998779 0.6665446
vt 0.3334554 0.6665446
vt 0.4001221 0.9334554
vt 0.4665446 0.9334554
vt 0.4665446 0.9998779
vt 0.4001221 0.9998779
vt 0.4667887 0.9334554
vt 0.5332113 0.9334554
vt 0.5332113 0.9998779
vt 0.4667887 0.9998779
vt 0.5334554 0.9334554
vt 0.599878 0.9334554
vt 0.599878 0.9998779
vt 0.5334554 0.9998779
vt 0.4001221 0.8667887
vt 0.4665446 0.8667887
vt 0.4665446 0.9332113
vt 0.4001221 0.9332113
vt 0.4667887 0.8667887
vt 0.5332113 0.8667887
vt 0.5332113 0.9332113
vt 0.4667887 0.9332113
vt 0.5334554 0.8667887
vt 0.599878 0.8667887
vt 0.599878 0.9332113
vt 0.5334554 0.9332113
vt 0.4001221 0.8001221
vt 0.4665446 0.8001221
vt 0.4665446 0.8665446
vt 0.4001221 0.8665446
vt 0.4667887 0.8001221
vt 0.5332113 0.8001221
vt 0.5332113 0.8665446
vt 0.4667887 0.8665446
vt 0.5334554 0.8001221
vt 0.599878 0.8001221
vt 0.599878 0.8665446
vt 0.5334554 0.8665446
vt 0.8001221 0.9334554
vt 0.8665446 0.9334554
vt 0.8665446 0.9998779
vt 0.8001221 0.9998779
vt 0.8667887 0.9334554
vt 0.9332113 0.9334554
vt 0.9332113 0.9998779
vt 0.8667887 0.9998779
vt 0.9334554 0.9334554
vt 0.9998779 0.9334554
vt 0.9998779 0.9998779
vt 0.9334554 0.9998779
vt 0.8001221 0.8667887
vt 0.8665446 0.8667887
vt 0.8665446 0.9332113
vt 0.8001221 0.9332113
vt 0.8667887 0.8667887
vt 0.9332113 0.8667887
vt 0.9332113 0.9332113
vt 0.8667887 0.9332113
vt 0.9334554 0.8667887
vt 0.9998779 0.8667887
vt 0.9998779 0.9332113
vt 0.9334554 0.9332113
vt 0.8001221 0.8001221
vt 0.8665446 0.8001221
vt 0.8665446 0.8665446
vt 0.8001221 0.8665446
vt 0.8667887 0.8001221
vt 0.9332113 0.8001221
vt 0.9332113 0.8665446
vt 0.8667887 0.8665446
vt 0.9334554 0.8001221
vt 0.9998779 0.8001221
vt 0.9998779 0.8665446
vt 0.9334554 0.8665446
vt 0.6667888 0.400122
vt 0.7332113 0.400122
vt 0.7332113 0.4665446
vt 0.6667888 0.4665446
vt 0.6667888 0.4667887
vt 0.7332113 0.4667887
vt 0.7332113 0.5332112
vt 0.6667888 0.5332112
vt 0.6667888 0.5334554
vt 0.7332113 0.5334554
vt 0.7332113 0.599878
vt 0.6667888 0.599878
vt 0.6667888 0.3334554
vt 0.7332113 0.3334554
vt 0.7332113 0.3998779
vt 0.6667888 0.3998779
vt 0.3334554 0.400122
vt 0.3998779 0.400122
vt 0.3998779 0.4665446
vt 0.3334554 0.4665446
vt 0.2667888 0.4667887
vt 0.3332113 0.4667887
vt 0.3332113 0.5332112
vt 0.2667888 0.5332112
vt 0.2001221 0.4667887
vt 0.2665446 0.4667887
vt 0.2665446 0.5332112
vt 0.2001221 0.5332112
vt 0.1334554 0.2001221
vt 0.1998779 0.2001221
vt 0.1998779 0.2665446
vt 0.1334554 0.2665446
vt 0.5334554 0.2667887
vt 0.599878 0.2667887
vt 0.599878 0.3332112
vt 0.5334554 0.3332112
vt 0.6001221 0.2667887
vt 0.6665446 0.2667887
vt 0.6665446 0.3332112
vt 0.6001221 0.3332112
vt 0.5334554 0.2001221
vt 0.599878 0.2001221
vt 0.599878 0.2665446
vt 0.5334554 0.2665446
vt 0.6001221 0.2001221
vt 0.6665446 0.2001221
vt 0.6665446 0.2665446
vt 0.6001221 0.2665446
vt 0.4001221 0.2001221
vt 0.4665446 0.2001221
vt 0.4665446 0.2665446
vt 0.4001221 0.2665446
vt 0.4667887 0.2001221
vt 0.5332113 0.2001221
vt 0.5332113 0.2665446
vt 0.4667887 0.2665446
vt 0.6001221 0.5768417
vt 0.6998779 0.5768417
vt 0.6998779 0.6189256
vt 0.6001221 0.6189256
vt 0.4001221 0.1958893
vt 0.4998779 0.1958893
vt 0.4998779 0.2379732
vt 0.4001221 0.2379732
vt 0.8998779 0.5768417
vt 0.8998779 0.5342695
vt 1.000122 0.5342695
vt 1.000122 0.5768417
vt 0.4001221 0.1535612
vt 0.4998779 0.1535612
vt 0.4998779 0.1956452
vt 0.4001221 0.1956452
vt 0.7998779 0.5768417
vt 0.7998779 0.5342695
vt 0.900122 0.5342695
vt 0.900122 0.5768417
vt 0.6998779 0.5342695
vt 0.8001221 0.5342695
vt 0.8001221 0.5768417
vt 0.8998779 0.6191697
vt 0.8998779 0.5765975
vt 1.000122 0.5765975
vt 1.000122 0.6191697
vt 0.7998779 0.6191697
vt 0.7998779 0.5765975
vt 0.900122 0.5765975
vt 0.900122 0.6191697
vt 0.3001221 0.2382173
vt 0.3998779 0.2382173
vt 0.3998779 0.2803012
vt 0.3001221 0.2803012
vt 0.6998779 0.6191697
vt 0.6998779 0.5765975
vt 0.8001221 0.5765975
vt 0.8001221 0.6191697
vt 0.3001221 0.1958893
vt 0.3998779 0.1958893
vt 0.3998779 0.2379732
vt 0.3001221 0.2379732
vt 0.3001221 0.1535612
vt 0.3998779 0.1535612
vt 0.3998779 0.1956452
vt 0.3001221 0.1956452
vt 0.8001221 0.6189256
vt 0.8001221 0.6614977
vt 0.6998779 0.6614977
vt 0.900122 0.6189256
vt 0.900122 0.6614977
vt 0.7998779 0.6614977
vt 0.7998779 0.6189256
vt 0.7001221 0.7038258
vt 0.7998779 0.7038258
vt 0.7998779 0.7459097
vt 0.7001221 0.7459097
vt 0.6001221 0.7038258
vt 0.6998779 0.7038258
vt 0.6998779 0.7459097
vt 0.6001221 0.7459097
vt 1.000122 0.6189256
vt 1.000122 0.6614977
vt 0.8998779 0.6614977
vt 0.8998779 0.6189256
vt 0.7001221 0.6614977
vt 0.7998779 0.7035816
vt 0.7001221 0.7035816
vt 0.6001221 0.6614977
vt 0.6998779 0.7035816
vt 0.6001221 0.7035816
vt 0.9998779 0.6189256
vt 0.9998779 0.5768417
vt 0.7001221 0.6189256
vt 0.7001221 0.5768417
vt 0.4001221 0.2667887
vt 0.4665446 0.2667887
vt 0.4665446 0.3332112
vt 0.4001221 0.3332112
vt 0.4667887 0.2667887
vt 0.5332113 0.2667887
vt 0.5332113 0.3332112
vt 0.4667887 0.3332112
vt 0.06678874 0.4667887
vt 0.1332113 0.4667887
vt 0.1332113 0.5332112
vt 0.06678874 0.5332112
vt 0.06678874 0.5334554
vt 0.1332113 0.5334554
vt 0.1332113 0.599878
vt 0.06678874 0.599878
vt 0.2667888 0.5334554
vt 0.3332113 0.5334554
vt 0.3332113 0.599878
vt 0.2667888 0.599878
vt 0.2001221 0.5334554
vt 0.2665446 0.5334554
vt 0.2665446 0.599878
vt 0.2001221 0.599878
vt 0.2667888 0.2001221
vt 0.3332113 0.2001221
vt 0.3332113 0.2665446
vt 0.2667888 0.2665446
vt 0.1334554 0.4667887
vt 0.1998779 0.4667887
vt 0.1998779 0.5332112
vt 0.1334554 0.5332112
vt 0.1334554 0.400122
vt 0.1998779 0.400122
vt 0.1998779 0.4665446
vt 0.1334554 0.4665446
vt 0.2001221 0.2001221
vt 0.2665446 0.2001221
vt 0.2665446 0.2665446
vt 0.2001221 0.2665446
vt 0.1334554 0.3334554
vt 0.1998779 0.3334554
vt 0.1998779 0.3998779
vt 0.1334554 0.3998779
vt 0.7998779 0.7461538
vt 0.900122 0.7035816
vt 0.900122 0.7461538
vt 0.7998779 0.6612536
vt 0.900122 0.6612536
vt 0.900122 0.7038258
vt 0.599878 0.6614977
vt 0.599878 0.6189256
vt 0.8001221 0.7038258
vt 0.8998779 0.7038258
vt 0.8998779 0.7459097
vt 0.8001221 0.7459097
vt 0.4001221 0.2382173
vt 0.4998779 0.2382173
vt 0.4998779 0.2803012
vt 0.4001221 0.2803012
vt 0.8998779 0.7035816
vt 0.8001221 0.7035816
vt 0.8001221 0.5334554
vt 0.8665446 0.5334554
vt 0.8665446 0.599878
vt 0.8001221 0.599878

# Normal
vn 0 0 -1

# Groups (Count = 12)

g mesh_0001
f 1/1/1 2/2/1 3/3/1 4/4/1
f 2/1/1 5/2/1 6/3/1 3/4/1
f 5/1/1 7/2/1 8/3/1 6/4/1
f 7/1/1 9/2/1 10/3/1 8/4/1
f 9/1/1 11/2/1 12/3/1 10/4/1
f 11/5/1 13/6/1 14/7/1 12/8/1
f 15/9/1 16/10/1 2/11/1 1/12/1
f 16/9/1 17/10/1 5/11/1 2/12/1
f 17/9/1 18/10/1 7/11/1 5/12/1
f 18/1/1 19/2/1 9/3/1 7/4/1
f 19/5/1 20/6/1 11/7/1 9/8/1
f 20/5/1 21/6/1 13/7/1 11/8/1
f 22/9/1 23/10/1 16/11/1 15/12/1
f 23/13/1 24/14/1 17/15/1 16/16/1
f 24/1/1 25/2/1 18/3/1 17/4/1
f 25/9/1 26/10/1 19/11/1 18/12/1
f 26/13/1 27/14/1 20/15/1 19/16/1
f 27/5/1 28/6/1 21/7/1 20/8/1
f 29/1/1 30/2/1 23/3/1 22/4/1
f 30/9/1 31/10/1 24/11/1 23/12/1
f 31/9/1 32/10/1 25/11/1 24/12/1
f 32/13/1 33/14/1 26/15/1 25/16/1
f 33/1/1 34/2/1 27/3/1 26/4/1
f 34/5/1 35/6/1 28/7/1 27/8/1
f 36/9/1 37/10/1 30/11/1 29/12/1
f 37/13/1 38/14/1 31/15/1 30/16/1
f 38/9/1 39/10/1 32/11/1 31/12/1
f 39/13/1 40/14/1 33/15/1 32/16/1
f 40/1/1 41/2/1 34/3/1 33/4/1
f 41/5/1 42/6/1 35/7/1 34/8/1
f 43/9/1 44/10/1 37/11/1 36/12/1
f 44/13/1 45/14/1 38/15/1 37/16/1
f 45/9/1 46/10/1 39/11/1 38/12/1
f 46/13/1 47/14/1 40/15/1 39/16/1
f 47/5/1 48/6/1 41/7/1 40/8/1
f 48/5/1 49/6/1 42/7/1 41/8/1
f 50/9/1 51/10/1 44/11/1 43/12/1
f 51/13/1 52/14/1 45/15/1 44/16/1
f 52/9/1 53/10/1 46/11/1 45/12/1
f 53/13/1 54/14/1 47/15/1 46/16/1
f 54/13/1 55/14/1 48/15/1 47/16/1
f 55/13/1 56/14/1 49/15/1 48/16/1
f 57/9/1 58/10/1 51/11/1 50/12/1
f 58/13/1 59/14/1 52/15/1 51/16/1
f 59/5/1 60/6/1 53/7/1 52/8/1
f 60/5/1 61/6/1 54/7/1 53/8/1
f 61/5/1 62/6/1 55/7/1 54/8/1
f 62/5/1 63/6/1 56/7/1 55/8/1
f 64/9/1 65/10/1 58/11/1 57/12/1
f 65/13/1 66/14/1 59/15/1 58/16/1
f 66/13/1 67/14/1 60/15/1 59/16/1
f 67/13/1 68/14/1 61/15/1 60/16/1
f 68/13/1 69/14/1 62/15/1 61/16/1
f 69/13/1 70/14/1 63/15/1 62/16/1

g mesh_0002
f 71/17/1 72/18/1 73/19/1 74/20/1
f 72/21/1 75/22/1 76/23/1 73/24/1
f 75/25/1 77/26/1 78/27/1 76/28/1
f 77/29/1 79/30/1 80/31/1 78/32/1
f 79/25/1 81/26/1 82/27/1 80/28/1
f 81/25/1 83/26/1 84/27/1 82/28/1
f 83/25/1 85/26/1 86/27/1 84/28/1
f 85/29/1 87/30/1 88/31/1 86/32/1
f 87/33/1 89/34/1 90/35/1 88/36/1
f 89/37/1 91/38/1 92/39/1 90/40/1
f 93/41/1 94/42/1 72/43/1 71/44/1
f 94/45/1 4/46/1 75/47/1 72/48/1
f 4/49/1 3/50/1 77/51/1 75/52/1
f 3/53/1 6/54/1 79/55/1 77/56/1
f 6/49/1 8/50/1 81/51/1 79/52/1
f 8/49/1 10/50/1 83/51/1 81/52/1
f 10/49/1 12/50/1 85/51/1 83/52/1
f 12/53/1 14/54/1 87/55/1 85/56/1
f 14/57/1 95/58/1 89/59/1 87/60/1
f 95/61/1 96/62/1 91/63/1 89/64/1
f 97/65/1 98/66/1 94/67/1 93/68/1
f 98/69/1 1/70/1 4/71/1 94/72/1
f 13/73/1 99/74/1 95/75/1 14/76/1
f 99/77/1 100/78/1 96/79/1 95/80/1
f 101/65/1 102/66/1 98/67/1 97/68/1
f 102/69/1 15/70/1 1/71/1 98/72/1
f 21/73/1 103/74/1 99/75/1 13/76/1
f 103/77/1 104/78/1 100/79/1 99/80/1
f 105/65/1 106/66/1 102/67/1 101/68/1
f 106/69/1 22/70/1 15/71/1 102/72/1
f 28/73/1 107/74/1 103/75/1 21/76/1
f 107/77/1 108/78/1 104/79/1 103/80/1
f 109/65/1 110/66/1 106/67/1 105/68/1
f 110/69/1 29/70/1 22/71/1 106/72/1
f 35/73/1 111/74/1 107/75/1 28/76/1
f 111/77/1 112/78/1 108/79/1 107/80/1
f 113/65/1 114/66/1 110/67/1 109/68/1
f 114/69/1 36/70/1 29/71/1 110/72/1
f 42/73/1 115/74/1 111/75/1 35/76/1
f 115/77/1 116/78/1 112/79/1 111/80/1
f 117/65/1 118/66/1 114/67/1 113/68/1
f 118/69/1 43/70/1 36/71/1 114/72/1
f 49/81/1 119/82/1 115/83/1 42/84/1
f 119/85/1 120/86/1 116/87/1 115/88/1
f 121/65/1 122/66/1 118/67/1 117/68/1
f 122/69/1 50/70/1 43/71/1 118/72/1
f 56/73/1 123/74/1 119/75/1 49/76/1
f 123/77/1 124/78/1 120/79/1 119/80/1
f 125/89/1 126/90/1 122/91/1 121/92/1
f 126/93/1 57/94/1 50/95/1 122/96/1
f 63/81/1 127/82/1 123/83/1 56/84/1
f 127/85/1 128/86/1 124/87/1 123/88/1
f 129/97/1 130/98/1 126/99/1 125/100/1
f 130/101/1 64/102/1 57/103/1 126/104/1
f 64/105/1 65/106/1 58/107/1 57/108/1
f 65/105/1 66/106/1 59/107/1 58/108/1
f 66/109/1 67/110/1 60/111/1 59/112/1
f 70/113/1 131/114/1 127/115/1 63/116/1
f 131/117/1 132/118/1 128/119/1 127/120/1
f 133/121/1 134/122/1 130/123/1 129/124/1
f 134/125/1 135/126/1 64/127/1 130/128/1
f 135/129/1 136/130/1 65/131/1 64/132/1
f 136/133/1 137/134/1 66/135/1 65/136/1
f 137/133/1 138/134/1 67/135/1 66/136/1
f 139/137/1 140/138/1 131/139/1 70/140/1
f 140/141/1 141/142/1 132/143/1 131/144/1

g mesh_0003
f 60/145/1 61/146/1 54/147/1 53/148/1
f 61/149/1 62/150/1 55/151/1 54/152/1
f 62/153/1 63/154/1 56/155/1 55/156/1
f 67/157/1 68/158/1 61/159/1 60/160/1
f 68/161/1 69/162/1 62/163/1 61/164/1
f 69/165/1 70/166/1 63/167/1 62/168/1
f 138/169/1 142/170/1 68/171/1 67/172/1
f 142/173/1 143/174/1 69/175/1 68/176/1
f 143/177/1 139/178/1 70/179/1 69/180/1

g mesh_0004
f 24/181/1 25/182/1 18/183/1 17/184/1
f 25/185/1 26/186/1 19/187/1 18/188/1
f 26/185/1 27/186/1 20/187/1 19/188/1
f 27/189/1 28/190/1 21/191/1 20/192/1
f 31/193/1 32/194/1 25/195/1 24/196/1
f 32/197/1 33/198/1 26/199/1 25/200/1
f 33/197/1 34/198/1 27/199/1 26/200/1
f 34/201/1 35/202/1 28/203/1 27/204/1
f 38/193/1 39/194/1 32/195/1 31/196/1
f 39/197/1 40/198/1 33/199/1 32/200/1
f 40/197/1 41/198/1 34/199/1 33/200/1
f 41/201/1 42/202/1 35/203/1 34/204/1
f 45/193/1 46/194/1 39/195/1 38/196/1
f 46/197/1 47/198/1 40/199/1 39/200/1
f 47/197/1 48/198/1 41/199/1 40/200/1
f 48/201/1 49/202/1 42/203/1 41/204/1
f 52/193/1 53/194/1 46/195/1 45/196/1
f 53/197/1 54/198/1 47/199/1 46/200/1
f 54/197/1 55/198/1 48/199/1 47/200/1
f 55/201/1 56/202/1 49/203/1 48/204/1
f 59/205/1 60/206/1 53/207/1 52/208/1
f 60/209/1 61/210/1 54/211/1 53/212/1
f 61/209/1 62/210/1 55/211/1 54/212/1
f 62/213/1 63/214/1 56/215/1 55/216/1

g mesh_0005
f 4/217/1 3/218/1 77/219/1 75/220/1
f 3/221/1 6/222/1 79/223/1 77/224/1
f 6/225/1 8/226/1 81/227/1 79/228/1
f 8/229/1 10/230/1 83/231/1 81/232/1
f 10/217/1 12/218/1 85/219/1 83/220/1
f 12/229/1 14/230/1 87/231/1 85/232/1

g mesh_0006
f 16/233/1 17/234/1 5/235/1 2/236/1
f 17/233/1 18/234/1 7/235/1 5/236/1
f 18/237/1 19/238/1 9/239/1 7/240/1
f 20/241/1 21/242/1 13/243/1 11/244/1
f 23/245/1 24/246/1 17/247/1 16/248/1
f 30/245/1 31/246/1 24/247/1 23/248/1
f 36/241/1 37/242/1 30/243/1 29/244/1
f 37/237/1 38/238/1 31/239/1 30/240/1

g mesh_0007
f 36/249/1 37/250/1 30/251/1 29/252/1
f 37/253/1 38/254/1 31/255/1 30/256/1
f 43/257/1 44/258/1 37/259/1 36/260/1
f 44/261/1 45/262/1 38/263/1 37/264/1
f 57/265/1 58/266/1 51/267/1 50/268/1
f 58/269/1 59/270/1 52/271/1 51/272/1

g mesh_0008
f 20/273/1 21/274/1 13/275/1 11/276/1
f 36/277/1 37/278/1 30/279/1 29/280/1
f 118/281/1 43/282/1 36/283/1 114/284/1
f 43/285/1 44/286/1 37/287/1 36/288/1
f 122/289/1 50/290/1 43/291/1 118/292/1
f 126/274/1 57/293/1 50/294/1 122/295/1

g mesh_0009
f 94/296/1 4/297/1 75/298/1 72/299/1
f 98/300/1 1/301/1 4/302/1 94/303/1
f 5/304/1 7/305/1 8/306/1 6/307/1
f 102/308/1 15/309/1 1/310/1 98/311/1
f 17/312/1 18/313/1 7/314/1 5/315/1
f 24/316/1 25/317/1 18/318/1 17/319/1
f 28/320/1 107/321/1 103/322/1 21/275/1
f 110/296/1 29/297/1 22/298/1 106/299/1
f 35/323/1 111/324/1 107/325/1 28/326/1
f 114/300/1 36/301/1 29/302/1 110/303/1
f 36/327/1 37/328/1 30/329/1 29/330/1
f 37/331/1 38/332/1 31/333/1 30/334/1
f 42/335/1 115/336/1 111/337/1 35/338/1
f 118/308/1 43/309/1 36/310/1 114/311/1
f 43/339/1 44/325/1 37/340/1 36/341/1
f 44/342/1 45/322/1 38/343/1 37/344/1
f 49/294/1 119/295/1 115/274/1 42/293/1
f 56/291/1 123/292/1 119/289/1 49/290/1
f 63/283/1 127/284/1 123/281/1 56/282/1
f 64/345/1 65/323/1 58/292/1 57/346/1
f 65/338/1 66/320/1 59/295/1 58/281/1
f 66/326/1 67/347/1 60/348/1 59/289/1

g mesh_0010
f 50/349/1 51/350/1 44/351/1 43/352/1
f 51/353/1 52/354/1 45/355/1 44/356/1

g mesh_0011
f 2/357/1 5/358/1 6/359/1 3/360/1
f 5/361/1 7/362/1 8/363/1 6/364/1
f 7/365/1 9/366/1 10/367/1 8/368/1
f 11/369/1 13/370/1 14/371/1 12/372/1
f 13/373/1 99/374/1 95/375/1 14/376/1
f 16/377/1 17/378/1 5/379/1 2/380/1
f 23/381/1 24/382/1 17/383/1 16/384/1
f 110/385/1 29/386/1 22/387/1 106/388/1
f 29/361/1 30/362/1 23/363/1 22/364/1
f 30/389/1 31/390/1 24/391/1 23/392/1

g mesh_0012
f 2/393/1 5/340/1 6/394/1 3/395/1
f 5/328/1 7/396/1 8/397/1 6/398/1
f 13/347/1 99/339/1 95/399/1 14/400/1
f 23/401/1 24/402/1 17/403/1 16/404/1
f 29/405/1 30/406/1 23/407/1 22/408/1
f 30/321/1 31/337/1 24/409/1 23/410/1

g mesh_0013
f 7/411/1 9/412/1 10/413/1 8/414/1

